<svg width="21" height="21" viewBox="0 0 21 21" fill="none" xmlns="http://www.w3.org/2000/svg">
<path d="M10.5 20.9764C16.2991 20.9764 21.0001 16.2807 21.0001 10.4882C21.0001 4.69573 16.2991 0 10.5 0C4.70103 0 0 4.69573 0 10.4882C0 16.2807 4.70103 20.9764 10.5 20.9764Z" fill="#313037"/>
<path d="M3.33472 10.6713C3.33472 10.6713 6.00254 5.33569 10.6712 5.33569C15.3399 5.33569 18.0078 10.6713 18.0078 10.6713C18.0078 10.6713 15.3399 16.007 10.6712 16.007C6.00254 16.007 3.33472 10.6713 3.33472 10.6713Z" stroke="white" stroke-width="2" stroke-linecap="round" stroke-linejoin="round"/>
<path d="M10.6713 12.724C11.7763 12.724 12.6721 11.8282 12.6721 10.7232C12.6721 9.61811 11.7763 8.72229 10.6713 8.72229C9.56623 8.72229 8.67041 9.61811 8.67041 10.7232C8.67041 11.8282 9.56623 12.724 10.6713 12.724Z" stroke="white" stroke-width="2" stroke-linecap="round" stroke-linejoin="round"/>
</svg>
